<mxfile host="app.diagrams.net" modified="2023-03-24T17:07:44.488Z" agent="Mozilla/5.0 (Windows NT 10.0; Win64; x64) AppleWebKit/537.36 (KHTML, like Gecko) Chrome/111.0.0.0 Safari/537.36" etag="RcMS_3aaeqLM3wmWmNHs" version="21.1.0" type="device">
  <diagram id="R2lEEEUBdFMjLlhIrx00" name="Page-1">
    <mxGraphModel dx="2435" dy="-4195" grid="1" gridSize="10" guides="1" tooltips="1" connect="1" arrows="1" fold="1" page="1" pageScale="1" pageWidth="850" pageHeight="1100" math="0" shadow="0" extFonts="Permanent Marker^https://fonts.googleapis.com/css?family=Permanent+Marker">
      <root>
        <mxCell id="0" />
        <mxCell id="1" parent="0" />
        <mxCell id="x5G75nbqkh0U1uUKyFEa-530" style="edgeStyle=orthogonalEdgeStyle;rounded=0;orthogonalLoop=1;jettySize=auto;html=1;exitX=1;exitY=0.5;exitDx=0;exitDy=0;entryX=0;entryY=0.5;entryDx=0;entryDy=0;" parent="1" source="qln_caeNBjAnbk7us_ng-47" target="qln_caeNBjAnbk7us_ng-74" edge="1">
          <mxGeometry relative="1" as="geometry" />
        </mxCell>
        <mxCell id="NhyKZMnc2FJVeLlSs4U3-15" style="edgeStyle=orthogonalEdgeStyle;rounded=0;orthogonalLoop=1;jettySize=auto;html=1;exitX=0.5;exitY=1;exitDx=0;exitDy=0;entryX=0.5;entryY=0;entryDx=0;entryDy=0;" parent="1" source="qln_caeNBjAnbk7us_ng-47" target="NhyKZMnc2FJVeLlSs4U3-10" edge="1">
          <mxGeometry relative="1" as="geometry" />
        </mxCell>
        <mxCell id="oqdAlFlm3cxLVqcBOJ25-38" style="edgeStyle=orthogonalEdgeStyle;rounded=0;orthogonalLoop=1;jettySize=auto;html=1;exitX=0;exitY=0.5;exitDx=0;exitDy=0;entryX=1;entryY=0.5;entryDx=0;entryDy=0;" edge="1" parent="1" source="qln_caeNBjAnbk7us_ng-47" target="oqdAlFlm3cxLVqcBOJ25-37">
          <mxGeometry relative="1" as="geometry" />
        </mxCell>
        <mxCell id="qln_caeNBjAnbk7us_ng-47" value="Pokemon" style="whiteSpace=wrap;html=1;align=center;" parent="1" vertex="1">
          <mxGeometry x="-180" y="6580" width="100" height="40" as="geometry" />
        </mxCell>
        <mxCell id="x5G75nbqkh0U1uUKyFEa-531" style="edgeStyle=orthogonalEdgeStyle;rounded=0;orthogonalLoop=1;jettySize=auto;html=1;exitX=1;exitY=0.5;exitDx=0;exitDy=0;entryX=0;entryY=0.5;entryDx=0;entryDy=0;" parent="1" source="qln_caeNBjAnbk7us_ng-74" target="x5G75nbqkh0U1uUKyFEa-524" edge="1">
          <mxGeometry relative="1" as="geometry" />
        </mxCell>
        <mxCell id="qln_caeNBjAnbk7us_ng-74" value="tiene" style="shape=rhombus;perimeter=rhombusPerimeter;whiteSpace=wrap;html=1;align=center;" parent="1" vertex="1">
          <mxGeometry x="130" y="6570" width="120" height="60" as="geometry" />
        </mxCell>
        <mxCell id="AE3IdgqN83eDhT4mOjnv-27" style="edgeStyle=orthogonalEdgeStyle;rounded=0;orthogonalLoop=1;jettySize=auto;html=1;exitX=1;exitY=0.5;exitDx=0;exitDy=0;" parent="1" source="qln_caeNBjAnbk7us_ng-88" target="qln_caeNBjAnbk7us_ng-47" edge="1">
          <mxGeometry relative="1" as="geometry" />
        </mxCell>
        <mxCell id="qln_caeNBjAnbk7us_ng-88" value="id pokemon" style="ellipse;whiteSpace=wrap;html=1;align=center;fontStyle=4;" parent="1" vertex="1">
          <mxGeometry x="-310" y="5820" width="100" height="40" as="geometry" />
        </mxCell>
        <mxCell id="AE3IdgqN83eDhT4mOjnv-26" style="edgeStyle=orthogonalEdgeStyle;rounded=0;orthogonalLoop=1;jettySize=auto;html=1;exitX=1;exitY=0.5;exitDx=0;exitDy=0;" parent="1" source="qln_caeNBjAnbk7us_ng-89" target="qln_caeNBjAnbk7us_ng-47" edge="1">
          <mxGeometry relative="1" as="geometry" />
        </mxCell>
        <mxCell id="qln_caeNBjAnbk7us_ng-89" value="nivel" style="ellipse;whiteSpace=wrap;html=1;align=center;" parent="1" vertex="1">
          <mxGeometry x="-310" y="5870" width="100" height="40" as="geometry" />
        </mxCell>
        <mxCell id="AE3IdgqN83eDhT4mOjnv-23" style="edgeStyle=orthogonalEdgeStyle;rounded=0;orthogonalLoop=1;jettySize=auto;html=1;exitX=1;exitY=0.5;exitDx=0;exitDy=0;entryX=0.5;entryY=0;entryDx=0;entryDy=0;" parent="1" source="qln_caeNBjAnbk7us_ng-90" target="qln_caeNBjAnbk7us_ng-47" edge="1">
          <mxGeometry relative="1" as="geometry" />
        </mxCell>
        <mxCell id="qln_caeNBjAnbk7us_ng-90" value="tipo" style="ellipse;whiteSpace=wrap;html=1;align=center;" parent="1" vertex="1">
          <mxGeometry x="-310" y="6020" width="100" height="40" as="geometry" />
        </mxCell>
        <mxCell id="AE3IdgqN83eDhT4mOjnv-24" style="edgeStyle=orthogonalEdgeStyle;rounded=0;orthogonalLoop=1;jettySize=auto;html=1;exitX=1;exitY=0.5;exitDx=0;exitDy=0;" parent="1" source="qln_caeNBjAnbk7us_ng-91" target="qln_caeNBjAnbk7us_ng-47" edge="1">
          <mxGeometry relative="1" as="geometry" />
        </mxCell>
        <mxCell id="qln_caeNBjAnbk7us_ng-91" value="estado" style="ellipse;whiteSpace=wrap;html=1;align=center;" parent="1" vertex="1">
          <mxGeometry x="-310" y="5970" width="100" height="40" as="geometry" />
        </mxCell>
        <mxCell id="AE3IdgqN83eDhT4mOjnv-25" style="edgeStyle=orthogonalEdgeStyle;rounded=0;orthogonalLoop=1;jettySize=auto;html=1;exitX=1;exitY=0.5;exitDx=0;exitDy=0;" parent="1" source="qln_caeNBjAnbk7us_ng-92" target="qln_caeNBjAnbk7us_ng-47" edge="1">
          <mxGeometry relative="1" as="geometry" />
        </mxCell>
        <mxCell id="qln_caeNBjAnbk7us_ng-92" value="objeto" style="ellipse;whiteSpace=wrap;html=1;align=center;" parent="1" vertex="1">
          <mxGeometry x="-310" y="5920" width="100" height="40" as="geometry" />
        </mxCell>
        <mxCell id="AE3IdgqN83eDhT4mOjnv-22" style="edgeStyle=orthogonalEdgeStyle;rounded=0;orthogonalLoop=1;jettySize=auto;html=1;exitX=1;exitY=0.5;exitDx=0;exitDy=0;entryX=0.5;entryY=0;entryDx=0;entryDy=0;" parent="1" source="qln_caeNBjAnbk7us_ng-93" target="qln_caeNBjAnbk7us_ng-47" edge="1">
          <mxGeometry relative="1" as="geometry" />
        </mxCell>
        <mxCell id="qln_caeNBjAnbk7us_ng-93" value="sexo" style="ellipse;whiteSpace=wrap;html=1;align=center;" parent="1" vertex="1">
          <mxGeometry x="-310" y="6070" width="100" height="40" as="geometry" />
        </mxCell>
        <mxCell id="AE3IdgqN83eDhT4mOjnv-21" style="edgeStyle=orthogonalEdgeStyle;rounded=0;orthogonalLoop=1;jettySize=auto;html=1;exitX=1;exitY=0.5;exitDx=0;exitDy=0;entryX=0.5;entryY=0;entryDx=0;entryDy=0;" parent="1" source="qln_caeNBjAnbk7us_ng-94" target="qln_caeNBjAnbk7us_ng-47" edge="1">
          <mxGeometry relative="1" as="geometry" />
        </mxCell>
        <mxCell id="qln_caeNBjAnbk7us_ng-94" value="fertilidad" style="ellipse;whiteSpace=wrap;html=1;align=center;" parent="1" vertex="1">
          <mxGeometry x="-310" y="6120" width="100" height="40" as="geometry" />
        </mxCell>
        <mxCell id="qln_caeNBjAnbk7us_ng-101" value="(1,n)" style="text;html=1;align=center;verticalAlign=middle;resizable=0;points=[];autosize=1;strokeColor=none;fillColor=none;" parent="1" vertex="1">
          <mxGeometry x="410" y="6560" width="50" height="30" as="geometry" />
        </mxCell>
        <mxCell id="qln_caeNBjAnbk7us_ng-102" value="(1,n)" style="text;html=1;align=center;verticalAlign=middle;resizable=0;points=[];autosize=1;strokeColor=none;fillColor=none;" parent="1" vertex="1">
          <mxGeometry x="-70" y="6560" width="50" height="30" as="geometry" />
        </mxCell>
        <mxCell id="qln_caeNBjAnbk7us_ng-103" value="N:M" style="text;html=1;align=center;verticalAlign=middle;resizable=0;points=[];autosize=1;strokeColor=none;fillColor=none;" parent="1" vertex="1">
          <mxGeometry x="165" y="6540" width="50" height="30" as="geometry" />
        </mxCell>
        <mxCell id="NhyKZMnc2FJVeLlSs4U3-11" style="edgeStyle=orthogonalEdgeStyle;rounded=0;orthogonalLoop=1;jettySize=auto;html=1;exitX=1;exitY=0.5;exitDx=0;exitDy=0;entryX=0;entryY=0.5;entryDx=0;entryDy=0;" parent="1" source="x5G75nbqkh0U1uUKyFEa-524" target="NhyKZMnc2FJVeLlSs4U3-5" edge="1">
          <mxGeometry relative="1" as="geometry" />
        </mxCell>
        <mxCell id="x5G75nbqkh0U1uUKyFEa-524" value="Tipo" style="whiteSpace=wrap;html=1;align=center;" parent="1" vertex="1">
          <mxGeometry x="470" y="6580" width="100" height="40" as="geometry" />
        </mxCell>
        <mxCell id="x5G75nbqkh0U1uUKyFEa-525" value="Entrenador&amp;nbsp;" style="whiteSpace=wrap;html=1;align=center;" parent="1" vertex="1">
          <mxGeometry x="-180" y="6930" width="100" height="40" as="geometry" />
        </mxCell>
        <mxCell id="oqdAlFlm3cxLVqcBOJ25-4" style="edgeStyle=orthogonalEdgeStyle;rounded=0;orthogonalLoop=1;jettySize=auto;html=1;exitX=1;exitY=0.5;exitDx=0;exitDy=0;entryX=0.5;entryY=0;entryDx=0;entryDy=0;" edge="1" parent="1" source="NhyKZMnc2FJVeLlSs4U3-5" target="NhyKZMnc2FJVeLlSs4U3-8">
          <mxGeometry relative="1" as="geometry" />
        </mxCell>
        <mxCell id="NhyKZMnc2FJVeLlSs4U3-5" value="tiene" style="shape=rhombus;perimeter=rhombusPerimeter;whiteSpace=wrap;html=1;align=center;" parent="1" vertex="1">
          <mxGeometry x="800" y="6570" width="120" height="60" as="geometry" />
        </mxCell>
        <mxCell id="NhyKZMnc2FJVeLlSs4U3-8" value="Movimiento" style="whiteSpace=wrap;html=1;align=center;" parent="1" vertex="1">
          <mxGeometry x="1100" y="6630" width="100" height="40" as="geometry" />
        </mxCell>
        <mxCell id="NhyKZMnc2FJVeLlSs4U3-16" style="edgeStyle=orthogonalEdgeStyle;rounded=0;orthogonalLoop=1;jettySize=auto;html=1;exitX=0.5;exitY=1;exitDx=0;exitDy=0;entryX=0.5;entryY=0;entryDx=0;entryDy=0;" parent="1" source="NhyKZMnc2FJVeLlSs4U3-10" target="x5G75nbqkh0U1uUKyFEa-525" edge="1">
          <mxGeometry relative="1" as="geometry" />
        </mxCell>
        <mxCell id="NhyKZMnc2FJVeLlSs4U3-10" value="tiene" style="shape=rhombus;perimeter=rhombusPerimeter;whiteSpace=wrap;html=1;align=center;" parent="1" vertex="1">
          <mxGeometry x="-190" y="6730" width="120" height="60" as="geometry" />
        </mxCell>
        <mxCell id="NhyKZMnc2FJVeLlSs4U3-36" value="(1,n)" style="text;html=1;align=center;verticalAlign=middle;resizable=0;points=[];autosize=1;strokeColor=none;fillColor=none;" parent="1" vertex="1">
          <mxGeometry x="1160" y="6590" width="50" height="30" as="geometry" />
        </mxCell>
        <mxCell id="NhyKZMnc2FJVeLlSs4U3-37" value="(1,1)" style="text;html=1;align=center;verticalAlign=middle;resizable=0;points=[];autosize=1;strokeColor=none;fillColor=none;" parent="1" vertex="1">
          <mxGeometry x="570" y="6570" width="50" height="30" as="geometry" />
        </mxCell>
        <mxCell id="NhyKZMnc2FJVeLlSs4U3-41" value="1:N" style="text;html=1;align=center;verticalAlign=middle;resizable=0;points=[];autosize=1;strokeColor=none;fillColor=none;" parent="1" vertex="1">
          <mxGeometry x="840" y="6540" width="40" height="30" as="geometry" />
        </mxCell>
        <mxCell id="AE3IdgqN83eDhT4mOjnv-20" style="edgeStyle=orthogonalEdgeStyle;rounded=0;orthogonalLoop=1;jettySize=auto;html=1;exitX=1;exitY=0.5;exitDx=0;exitDy=0;entryX=0.5;entryY=0;entryDx=0;entryDy=0;" parent="1" source="AE3IdgqN83eDhT4mOjnv-2" target="qln_caeNBjAnbk7us_ng-47" edge="1">
          <mxGeometry relative="1" as="geometry" />
        </mxCell>
        <mxCell id="AE3IdgqN83eDhT4mOjnv-2" value="movimientos" style="ellipse;whiteSpace=wrap;html=1;align=center;" parent="1" vertex="1">
          <mxGeometry x="-310" y="6170" width="100" height="40" as="geometry" />
        </mxCell>
        <mxCell id="AE3IdgqN83eDhT4mOjnv-16" style="edgeStyle=orthogonalEdgeStyle;rounded=0;orthogonalLoop=1;jettySize=auto;html=1;exitX=1;exitY=0.5;exitDx=0;exitDy=0;entryX=0.5;entryY=0;entryDx=0;entryDy=0;" parent="1" source="AE3IdgqN83eDhT4mOjnv-3" target="qln_caeNBjAnbk7us_ng-47" edge="1">
          <mxGeometry relative="1" as="geometry" />
        </mxCell>
        <mxCell id="AE3IdgqN83eDhT4mOjnv-3" value="defensa" style="ellipse;whiteSpace=wrap;html=1;align=center;" parent="1" vertex="1">
          <mxGeometry x="-310" y="6320" width="100" height="40" as="geometry" />
        </mxCell>
        <mxCell id="AE3IdgqN83eDhT4mOjnv-19" style="edgeStyle=orthogonalEdgeStyle;rounded=0;orthogonalLoop=1;jettySize=auto;html=1;exitX=1;exitY=0.5;exitDx=0;exitDy=0;" parent="1" source="AE3IdgqN83eDhT4mOjnv-4" target="qln_caeNBjAnbk7us_ng-47" edge="1">
          <mxGeometry relative="1" as="geometry" />
        </mxCell>
        <mxCell id="AE3IdgqN83eDhT4mOjnv-4" value="ataque especial&lt;br/&gt;" style="ellipse;whiteSpace=wrap;html=1;align=center;" parent="1" vertex="1">
          <mxGeometry x="-310" y="6270" width="100" height="40" as="geometry" />
        </mxCell>
        <mxCell id="AE3IdgqN83eDhT4mOjnv-18" style="edgeStyle=orthogonalEdgeStyle;rounded=0;orthogonalLoop=1;jettySize=auto;html=1;exitX=1;exitY=0.5;exitDx=0;exitDy=0;" parent="1" source="AE3IdgqN83eDhT4mOjnv-5" target="qln_caeNBjAnbk7us_ng-47" edge="1">
          <mxGeometry relative="1" as="geometry" />
        </mxCell>
        <mxCell id="AE3IdgqN83eDhT4mOjnv-5" value="defensa especial&lt;br/&gt;" style="ellipse;whiteSpace=wrap;html=1;align=center;" parent="1" vertex="1">
          <mxGeometry x="-310" y="6220" width="100" height="40" as="geometry" />
        </mxCell>
        <mxCell id="AE3IdgqN83eDhT4mOjnv-17" style="edgeStyle=orthogonalEdgeStyle;rounded=0;orthogonalLoop=1;jettySize=auto;html=1;exitX=1;exitY=0.5;exitDx=0;exitDy=0;" parent="1" source="AE3IdgqN83eDhT4mOjnv-6" target="qln_caeNBjAnbk7us_ng-47" edge="1">
          <mxGeometry relative="1" as="geometry" />
        </mxCell>
        <mxCell id="AE3IdgqN83eDhT4mOjnv-6" value="ataque" style="ellipse;whiteSpace=wrap;html=1;align=center;" parent="1" vertex="1">
          <mxGeometry x="-310" y="6370" width="100" height="40" as="geometry" />
        </mxCell>
        <mxCell id="AE3IdgqN83eDhT4mOjnv-15" style="edgeStyle=orthogonalEdgeStyle;rounded=0;orthogonalLoop=1;jettySize=auto;html=1;exitX=1;exitY=0.5;exitDx=0;exitDy=0;" parent="1" source="AE3IdgqN83eDhT4mOjnv-7" target="qln_caeNBjAnbk7us_ng-47" edge="1">
          <mxGeometry relative="1" as="geometry" />
        </mxCell>
        <mxCell id="AE3IdgqN83eDhT4mOjnv-7" value="vitalidad" style="ellipse;whiteSpace=wrap;html=1;align=center;" parent="1" vertex="1">
          <mxGeometry x="-310" y="6420" width="100" height="40" as="geometry" />
        </mxCell>
        <mxCell id="AE3IdgqN83eDhT4mOjnv-11" style="edgeStyle=orthogonalEdgeStyle;rounded=0;orthogonalLoop=1;jettySize=auto;html=1;exitX=1;exitY=0.5;exitDx=0;exitDy=0;entryX=0.5;entryY=0;entryDx=0;entryDy=0;" parent="1" source="AE3IdgqN83eDhT4mOjnv-8" target="qln_caeNBjAnbk7us_ng-47" edge="1">
          <mxGeometry relative="1" as="geometry" />
        </mxCell>
        <mxCell id="AE3IdgqN83eDhT4mOjnv-8" value="mote" style="ellipse;whiteSpace=wrap;html=1;align=center;" parent="1" vertex="1">
          <mxGeometry x="-310" y="6470" width="100" height="40" as="geometry" />
        </mxCell>
        <mxCell id="AE3IdgqN83eDhT4mOjnv-10" style="edgeStyle=orthogonalEdgeStyle;rounded=0;orthogonalLoop=1;jettySize=auto;html=1;exitX=1;exitY=0.5;exitDx=0;exitDy=0;" parent="1" source="AE3IdgqN83eDhT4mOjnv-9" target="qln_caeNBjAnbk7us_ng-47" edge="1">
          <mxGeometry relative="1" as="geometry" />
        </mxCell>
        <mxCell id="AE3IdgqN83eDhT4mOjnv-9" value="nombre" style="ellipse;whiteSpace=wrap;html=1;align=center;" parent="1" vertex="1">
          <mxGeometry x="-310" y="6520" width="100" height="40" as="geometry" />
        </mxCell>
        <mxCell id="AE3IdgqN83eDhT4mOjnv-44" style="edgeStyle=orthogonalEdgeStyle;rounded=0;orthogonalLoop=1;jettySize=auto;html=1;exitX=1;exitY=0.5;exitDx=0;exitDy=0;entryX=0.5;entryY=1;entryDx=0;entryDy=0;" parent="1" source="AE3IdgqN83eDhT4mOjnv-28" target="x5G75nbqkh0U1uUKyFEa-525" edge="1">
          <mxGeometry relative="1" as="geometry" />
        </mxCell>
        <mxCell id="AE3IdgqN83eDhT4mOjnv-28" value="id entrenador" style="ellipse;whiteSpace=wrap;html=1;align=center;fontStyle=4;" parent="1" vertex="1">
          <mxGeometry x="-290" y="7010" width="100" height="40" as="geometry" />
        </mxCell>
        <mxCell id="AE3IdgqN83eDhT4mOjnv-46" style="edgeStyle=orthogonalEdgeStyle;rounded=0;orthogonalLoop=1;jettySize=auto;html=1;exitX=1;exitY=0.5;exitDx=0;exitDy=0;entryX=0.5;entryY=1;entryDx=0;entryDy=0;" parent="1" source="AE3IdgqN83eDhT4mOjnv-29" target="x5G75nbqkh0U1uUKyFEa-525" edge="1">
          <mxGeometry relative="1" as="geometry" />
        </mxCell>
        <mxCell id="AE3IdgqN83eDhT4mOjnv-29" value="equipo" style="ellipse;whiteSpace=wrap;html=1;align=center;" parent="1" vertex="1">
          <mxGeometry x="-290" y="7110" width="100" height="40" as="geometry" />
        </mxCell>
        <mxCell id="AE3IdgqN83eDhT4mOjnv-45" style="edgeStyle=orthogonalEdgeStyle;rounded=0;orthogonalLoop=1;jettySize=auto;html=1;exitX=1;exitY=0.5;exitDx=0;exitDy=0;entryX=0.5;entryY=1;entryDx=0;entryDy=0;" parent="1" source="AE3IdgqN83eDhT4mOjnv-43" target="x5G75nbqkh0U1uUKyFEa-525" edge="1">
          <mxGeometry relative="1" as="geometry" />
        </mxCell>
        <mxCell id="AE3IdgqN83eDhT4mOjnv-43" value="nombre" style="ellipse;whiteSpace=wrap;html=1;align=center;" parent="1" vertex="1">
          <mxGeometry x="-290" y="7060" width="100" height="40" as="geometry" />
        </mxCell>
        <mxCell id="AE3IdgqN83eDhT4mOjnv-98" style="edgeStyle=orthogonalEdgeStyle;rounded=0;orthogonalLoop=1;jettySize=auto;html=1;exitX=0;exitY=0.5;exitDx=0;exitDy=0;entryX=0.5;entryY=1;entryDx=0;entryDy=0;" parent="1" source="AE3IdgqN83eDhT4mOjnv-94" target="NhyKZMnc2FJVeLlSs4U3-8" edge="1">
          <mxGeometry relative="1" as="geometry" />
        </mxCell>
        <mxCell id="AE3IdgqN83eDhT4mOjnv-94" value="movimiento_id" style="ellipse;whiteSpace=wrap;html=1;align=center;fontStyle=4;" parent="1" vertex="1">
          <mxGeometry x="1200" y="6780" width="160" height="80" as="geometry" />
        </mxCell>
        <mxCell id="AE3IdgqN83eDhT4mOjnv-100" style="edgeStyle=orthogonalEdgeStyle;rounded=0;orthogonalLoop=1;jettySize=auto;html=1;exitX=0;exitY=0.5;exitDx=0;exitDy=0;" parent="1" source="AE3IdgqN83eDhT4mOjnv-95" target="NhyKZMnc2FJVeLlSs4U3-8" edge="1">
          <mxGeometry relative="1" as="geometry" />
        </mxCell>
        <mxCell id="AE3IdgqN83eDhT4mOjnv-95" value="potencia" style="ellipse;whiteSpace=wrap;html=1;align=center;" parent="1" vertex="1">
          <mxGeometry x="1230" y="6920" width="100" height="40" as="geometry" />
        </mxCell>
        <mxCell id="AE3IdgqN83eDhT4mOjnv-99" style="edgeStyle=orthogonalEdgeStyle;rounded=0;orthogonalLoop=1;jettySize=auto;html=1;exitX=0;exitY=0.5;exitDx=0;exitDy=0;entryX=0.5;entryY=1;entryDx=0;entryDy=0;" parent="1" source="AE3IdgqN83eDhT4mOjnv-96" target="NhyKZMnc2FJVeLlSs4U3-8" edge="1">
          <mxGeometry relative="1" as="geometry" />
        </mxCell>
        <mxCell id="AE3IdgqN83eDhT4mOjnv-96" value="nombre" style="ellipse;whiteSpace=wrap;html=1;align=center;" parent="1" vertex="1">
          <mxGeometry x="1230" y="6870" width="100" height="40" as="geometry" />
        </mxCell>
        <mxCell id="AE3IdgqN83eDhT4mOjnv-101" style="edgeStyle=orthogonalEdgeStyle;rounded=0;orthogonalLoop=1;jettySize=auto;html=1;exitX=0;exitY=0.5;exitDx=0;exitDy=0;" parent="1" source="AE3IdgqN83eDhT4mOjnv-97" target="NhyKZMnc2FJVeLlSs4U3-8" edge="1">
          <mxGeometry relative="1" as="geometry" />
        </mxCell>
        <mxCell id="AE3IdgqN83eDhT4mOjnv-97" value="descripcion" style="ellipse;whiteSpace=wrap;html=1;align=center;" parent="1" vertex="1">
          <mxGeometry x="1230" y="7030" width="100" height="40" as="geometry" />
        </mxCell>
        <mxCell id="AE3IdgqN83eDhT4mOjnv-136" style="edgeStyle=orthogonalEdgeStyle;rounded=0;orthogonalLoop=1;jettySize=auto;html=1;exitX=1;exitY=0.5;exitDx=0;exitDy=0;" parent="1" source="AE3IdgqN83eDhT4mOjnv-108" target="x5G75nbqkh0U1uUKyFEa-524" edge="1">
          <mxGeometry relative="1" as="geometry" />
        </mxCell>
        <mxCell id="AE3IdgqN83eDhT4mOjnv-108" value="-volador" style="ellipse;whiteSpace=wrap;html=1;align=center;" parent="1" vertex="1">
          <mxGeometry x="285" y="6200" width="100" height="40" as="geometry" />
        </mxCell>
        <mxCell id="AE3IdgqN83eDhT4mOjnv-135" style="edgeStyle=orthogonalEdgeStyle;rounded=0;orthogonalLoop=1;jettySize=auto;html=1;exitX=1;exitY=0.5;exitDx=0;exitDy=0;" parent="1" source="AE3IdgqN83eDhT4mOjnv-109" target="x5G75nbqkh0U1uUKyFEa-524" edge="1">
          <mxGeometry relative="1" as="geometry" />
        </mxCell>
        <mxCell id="AE3IdgqN83eDhT4mOjnv-109" value="-electrico" style="ellipse;whiteSpace=wrap;html=1;align=center;" parent="1" vertex="1">
          <mxGeometry x="285" y="6150" width="100" height="40" as="geometry" />
        </mxCell>
        <mxCell id="AE3IdgqN83eDhT4mOjnv-131" style="edgeStyle=orthogonalEdgeStyle;rounded=0;orthogonalLoop=1;jettySize=auto;html=1;exitX=1;exitY=0.5;exitDx=0;exitDy=0;" parent="1" source="AE3IdgqN83eDhT4mOjnv-110" target="x5G75nbqkh0U1uUKyFEa-524" edge="1">
          <mxGeometry relative="1" as="geometry" />
        </mxCell>
        <mxCell id="AE3IdgqN83eDhT4mOjnv-110" value="-tierra" style="ellipse;whiteSpace=wrap;html=1;align=center;" parent="1" vertex="1">
          <mxGeometry x="285" y="6100" width="100" height="40" as="geometry" />
        </mxCell>
        <mxCell id="AE3IdgqN83eDhT4mOjnv-137" style="edgeStyle=orthogonalEdgeStyle;rounded=0;orthogonalLoop=1;jettySize=auto;html=1;exitX=1;exitY=0.5;exitDx=0;exitDy=0;" parent="1" source="AE3IdgqN83eDhT4mOjnv-111" target="x5G75nbqkh0U1uUKyFEa-524" edge="1">
          <mxGeometry relative="1" as="geometry" />
        </mxCell>
        <mxCell id="AE3IdgqN83eDhT4mOjnv-111" value="-bicho" style="ellipse;whiteSpace=wrap;html=1;align=center;" parent="1" vertex="1">
          <mxGeometry x="285" y="6250" width="100" height="40" as="geometry" />
        </mxCell>
        <mxCell id="AE3IdgqN83eDhT4mOjnv-138" style="edgeStyle=orthogonalEdgeStyle;rounded=0;orthogonalLoop=1;jettySize=auto;html=1;exitX=1;exitY=0.5;exitDx=0;exitDy=0;" parent="1" source="AE3IdgqN83eDhT4mOjnv-112" target="x5G75nbqkh0U1uUKyFEa-524" edge="1">
          <mxGeometry relative="1" as="geometry" />
        </mxCell>
        <mxCell id="AE3IdgqN83eDhT4mOjnv-112" value="-planta" style="ellipse;whiteSpace=wrap;html=1;align=center;" parent="1" vertex="1">
          <mxGeometry x="285" y="6300" width="100" height="40" as="geometry" />
        </mxCell>
        <mxCell id="AE3IdgqN83eDhT4mOjnv-139" style="edgeStyle=orthogonalEdgeStyle;rounded=0;orthogonalLoop=1;jettySize=auto;html=1;exitX=1;exitY=0.5;exitDx=0;exitDy=0;" parent="1" source="AE3IdgqN83eDhT4mOjnv-113" target="x5G75nbqkh0U1uUKyFEa-524" edge="1">
          <mxGeometry relative="1" as="geometry" />
        </mxCell>
        <mxCell id="AE3IdgqN83eDhT4mOjnv-113" value="-fuego" style="ellipse;whiteSpace=wrap;html=1;align=center;" parent="1" vertex="1">
          <mxGeometry x="285" y="6350" width="100" height="40" as="geometry" />
        </mxCell>
        <mxCell id="AE3IdgqN83eDhT4mOjnv-140" style="edgeStyle=orthogonalEdgeStyle;rounded=0;orthogonalLoop=1;jettySize=auto;html=1;exitX=1;exitY=0.5;exitDx=0;exitDy=0;" parent="1" source="AE3IdgqN83eDhT4mOjnv-114" target="x5G75nbqkh0U1uUKyFEa-524" edge="1">
          <mxGeometry relative="1" as="geometry" />
        </mxCell>
        <mxCell id="AE3IdgqN83eDhT4mOjnv-114" value="-agua" style="ellipse;whiteSpace=wrap;html=1;align=center;" parent="1" vertex="1">
          <mxGeometry x="285" y="6400" width="100" height="40" as="geometry" />
        </mxCell>
        <mxCell id="AE3IdgqN83eDhT4mOjnv-130" style="edgeStyle=orthogonalEdgeStyle;rounded=0;orthogonalLoop=1;jettySize=auto;html=1;exitX=1;exitY=0.5;exitDx=0;exitDy=0;" parent="1" source="AE3IdgqN83eDhT4mOjnv-115" target="x5G75nbqkh0U1uUKyFEa-524" edge="1">
          <mxGeometry relative="1" as="geometry" />
        </mxCell>
        <mxCell id="AE3IdgqN83eDhT4mOjnv-115" value="-veneno" style="ellipse;whiteSpace=wrap;html=1;align=center;" parent="1" vertex="1">
          <mxGeometry x="285" y="6050" width="100" height="40" as="geometry" />
        </mxCell>
        <mxCell id="AE3IdgqN83eDhT4mOjnv-129" style="edgeStyle=orthogonalEdgeStyle;rounded=0;orthogonalLoop=1;jettySize=auto;html=1;exitX=1;exitY=0.5;exitDx=0;exitDy=0;entryX=0.5;entryY=0;entryDx=0;entryDy=0;" parent="1" source="AE3IdgqN83eDhT4mOjnv-116" target="x5G75nbqkh0U1uUKyFEa-524" edge="1">
          <mxGeometry relative="1" as="geometry" />
        </mxCell>
        <mxCell id="AE3IdgqN83eDhT4mOjnv-116" value="-normal" style="ellipse;whiteSpace=wrap;html=1;align=center;" parent="1" vertex="1">
          <mxGeometry x="285" y="6000" width="100" height="40" as="geometry" />
        </mxCell>
        <mxCell id="AE3IdgqN83eDhT4mOjnv-128" style="edgeStyle=orthogonalEdgeStyle;rounded=0;orthogonalLoop=1;jettySize=auto;html=1;exitX=1;exitY=0.5;exitDx=0;exitDy=0;" parent="1" source="AE3IdgqN83eDhT4mOjnv-117" target="x5G75nbqkh0U1uUKyFEa-524" edge="1">
          <mxGeometry relative="1" as="geometry" />
        </mxCell>
        <mxCell id="AE3IdgqN83eDhT4mOjnv-117" value="-lucha" style="ellipse;whiteSpace=wrap;html=1;align=center;" parent="1" vertex="1">
          <mxGeometry x="285" y="5950" width="100" height="40" as="geometry" />
        </mxCell>
        <mxCell id="AE3IdgqN83eDhT4mOjnv-127" style="edgeStyle=orthogonalEdgeStyle;rounded=0;orthogonalLoop=1;jettySize=auto;html=1;exitX=1;exitY=0.5;exitDx=0;exitDy=0;" parent="1" source="AE3IdgqN83eDhT4mOjnv-118" target="x5G75nbqkh0U1uUKyFEa-524" edge="1">
          <mxGeometry relative="1" as="geometry" />
        </mxCell>
        <mxCell id="AE3IdgqN83eDhT4mOjnv-118" value="-psiquico" style="ellipse;whiteSpace=wrap;html=1;align=center;" parent="1" vertex="1">
          <mxGeometry x="285" y="5900" width="100" height="40" as="geometry" />
        </mxCell>
        <mxCell id="AE3IdgqN83eDhT4mOjnv-126" style="edgeStyle=orthogonalEdgeStyle;rounded=0;orthogonalLoop=1;jettySize=auto;html=1;exitX=1;exitY=0.5;exitDx=0;exitDy=0;" parent="1" source="AE3IdgqN83eDhT4mOjnv-119" target="x5G75nbqkh0U1uUKyFEa-524" edge="1">
          <mxGeometry relative="1" as="geometry" />
        </mxCell>
        <mxCell id="AE3IdgqN83eDhT4mOjnv-119" value="-hielo" style="ellipse;whiteSpace=wrap;html=1;align=center;" parent="1" vertex="1">
          <mxGeometry x="285" y="5850" width="100" height="40" as="geometry" />
        </mxCell>
        <mxCell id="AE3IdgqN83eDhT4mOjnv-125" style="edgeStyle=orthogonalEdgeStyle;rounded=0;orthogonalLoop=1;jettySize=auto;html=1;exitX=1;exitY=0.5;exitDx=0;exitDy=0;" parent="1" source="AE3IdgqN83eDhT4mOjnv-120" target="x5G75nbqkh0U1uUKyFEa-524" edge="1">
          <mxGeometry relative="1" as="geometry" />
        </mxCell>
        <mxCell id="AE3IdgqN83eDhT4mOjnv-120" value="-fantasma" style="ellipse;whiteSpace=wrap;html=1;align=center;" parent="1" vertex="1">
          <mxGeometry x="285" y="5800" width="100" height="40" as="geometry" />
        </mxCell>
        <mxCell id="AE3IdgqN83eDhT4mOjnv-124" style="edgeStyle=orthogonalEdgeStyle;rounded=0;orthogonalLoop=1;jettySize=auto;html=1;exitX=1;exitY=0.5;exitDx=0;exitDy=0;entryX=0.5;entryY=0;entryDx=0;entryDy=0;" parent="1" source="AE3IdgqN83eDhT4mOjnv-121" target="x5G75nbqkh0U1uUKyFEa-524" edge="1">
          <mxGeometry relative="1" as="geometry" />
        </mxCell>
        <mxCell id="AE3IdgqN83eDhT4mOjnv-121" value="-dragon" style="ellipse;whiteSpace=wrap;html=1;align=center;" parent="1" vertex="1">
          <mxGeometry x="285" y="5750" width="100" height="40" as="geometry" />
        </mxCell>
        <mxCell id="AE3IdgqN83eDhT4mOjnv-123" style="edgeStyle=orthogonalEdgeStyle;rounded=0;orthogonalLoop=1;jettySize=auto;html=1;exitX=1;exitY=0.5;exitDx=0;exitDy=0;entryX=0.5;entryY=0;entryDx=0;entryDy=0;" parent="1" source="AE3IdgqN83eDhT4mOjnv-122" target="x5G75nbqkh0U1uUKyFEa-524" edge="1">
          <mxGeometry relative="1" as="geometry" />
        </mxCell>
        <mxCell id="AE3IdgqN83eDhT4mOjnv-122" value="-roca" style="ellipse;whiteSpace=wrap;html=1;align=center;" parent="1" vertex="1">
          <mxGeometry x="285" y="5700" width="100" height="40" as="geometry" />
        </mxCell>
        <mxCell id="2WcANxJ6mbg_gtBeb89z-2" style="edgeStyle=orthogonalEdgeStyle;rounded=0;orthogonalLoop=1;jettySize=auto;html=1;exitX=1;exitY=0.5;exitDx=0;exitDy=0;entryX=0.5;entryY=0;entryDx=0;entryDy=0;" parent="1" source="2WcANxJ6mbg_gtBeb89z-1" target="x5G75nbqkh0U1uUKyFEa-524" edge="1">
          <mxGeometry relative="1" as="geometry" />
        </mxCell>
        <mxCell id="2WcANxJ6mbg_gtBeb89z-1" value="&lt;u&gt;id_tipo&lt;/u&gt;" style="ellipse;whiteSpace=wrap;html=1;align=center;" parent="1" vertex="1">
          <mxGeometry x="285" y="5650" width="100" height="40" as="geometry" />
        </mxCell>
        <mxCell id="oqdAlFlm3cxLVqcBOJ25-15" style="edgeStyle=orthogonalEdgeStyle;rounded=0;orthogonalLoop=1;jettySize=auto;html=1;exitX=0;exitY=0.5;exitDx=0;exitDy=0;" edge="1" parent="1" source="oqdAlFlm3cxLVqcBOJ25-8" target="NhyKZMnc2FJVeLlSs4U3-8">
          <mxGeometry relative="1" as="geometry" />
        </mxCell>
        <mxCell id="oqdAlFlm3cxLVqcBOJ25-8" value="estamina" style="ellipse;whiteSpace=wrap;html=1;align=center;" vertex="1" parent="1">
          <mxGeometry x="1230" y="7090" width="100" height="40" as="geometry" />
        </mxCell>
        <mxCell id="oqdAlFlm3cxLVqcBOJ25-16" style="edgeStyle=orthogonalEdgeStyle;rounded=0;orthogonalLoop=1;jettySize=auto;html=1;exitX=0;exitY=0.5;exitDx=0;exitDy=0;" edge="1" parent="1" source="oqdAlFlm3cxLVqcBOJ25-9" target="NhyKZMnc2FJVeLlSs4U3-8">
          <mxGeometry relative="1" as="geometry" />
        </mxCell>
        <mxCell id="oqdAlFlm3cxLVqcBOJ25-9" value="tipo" style="ellipse;whiteSpace=wrap;html=1;align=center;" vertex="1" parent="1">
          <mxGeometry x="1230" y="7140" width="100" height="40" as="geometry" />
        </mxCell>
        <mxCell id="oqdAlFlm3cxLVqcBOJ25-14" style="edgeStyle=orthogonalEdgeStyle;rounded=0;orthogonalLoop=1;jettySize=auto;html=1;exitX=0;exitY=0.5;exitDx=0;exitDy=0;entryX=0.5;entryY=1;entryDx=0;entryDy=0;" edge="1" parent="1" source="oqdAlFlm3cxLVqcBOJ25-11" target="NhyKZMnc2FJVeLlSs4U3-8">
          <mxGeometry relative="1" as="geometry" />
        </mxCell>
        <mxCell id="oqdAlFlm3cxLVqcBOJ25-11" value="tipo_movimiento" style="ellipse;whiteSpace=wrap;html=1;align=center;" vertex="1" parent="1">
          <mxGeometry x="1230" y="6980" width="100" height="40" as="geometry" />
        </mxCell>
        <mxCell id="oqdAlFlm3cxLVqcBOJ25-17" value="Pokemon_base" style="whiteSpace=wrap;html=1;align=center;" vertex="1" parent="1">
          <mxGeometry x="-730" y="6580" width="100" height="40" as="geometry" />
        </mxCell>
        <mxCell id="oqdAlFlm3cxLVqcBOJ25-29" style="edgeStyle=orthogonalEdgeStyle;rounded=0;orthogonalLoop=1;jettySize=auto;html=1;exitX=1;exitY=0.5;exitDx=0;exitDy=0;entryX=0.5;entryY=0;entryDx=0;entryDy=0;" edge="1" parent="1" source="oqdAlFlm3cxLVqcBOJ25-19" target="oqdAlFlm3cxLVqcBOJ25-17">
          <mxGeometry relative="1" as="geometry" />
        </mxCell>
        <mxCell id="oqdAlFlm3cxLVqcBOJ25-19" value="id pokemon" style="ellipse;whiteSpace=wrap;html=1;align=center;fontStyle=4;" vertex="1" parent="1">
          <mxGeometry x="-830" y="6170" width="100" height="40" as="geometry" />
        </mxCell>
        <mxCell id="oqdAlFlm3cxLVqcBOJ25-30" style="edgeStyle=orthogonalEdgeStyle;rounded=0;orthogonalLoop=1;jettySize=auto;html=1;exitX=1;exitY=0.5;exitDx=0;exitDy=0;entryX=0.5;entryY=0;entryDx=0;entryDy=0;" edge="1" parent="1" source="oqdAlFlm3cxLVqcBOJ25-20" target="oqdAlFlm3cxLVqcBOJ25-17">
          <mxGeometry relative="1" as="geometry" />
        </mxCell>
        <mxCell id="oqdAlFlm3cxLVqcBOJ25-20" value="ataque" style="ellipse;whiteSpace=wrap;html=1;align=center;" vertex="1" parent="1">
          <mxGeometry x="-830" y="6220" width="100" height="40" as="geometry" />
        </mxCell>
        <mxCell id="oqdAlFlm3cxLVqcBOJ25-31" style="edgeStyle=orthogonalEdgeStyle;rounded=0;orthogonalLoop=1;jettySize=auto;html=1;exitX=1;exitY=0.5;exitDx=0;exitDy=0;entryX=0.5;entryY=0;entryDx=0;entryDy=0;" edge="1" parent="1" source="oqdAlFlm3cxLVqcBOJ25-23" target="oqdAlFlm3cxLVqcBOJ25-17">
          <mxGeometry relative="1" as="geometry" />
        </mxCell>
        <mxCell id="oqdAlFlm3cxLVqcBOJ25-23" value="defensa" style="ellipse;whiteSpace=wrap;html=1;align=center;" vertex="1" parent="1">
          <mxGeometry x="-830" y="6270" width="100" height="40" as="geometry" />
        </mxCell>
        <mxCell id="oqdAlFlm3cxLVqcBOJ25-33" style="edgeStyle=orthogonalEdgeStyle;rounded=0;orthogonalLoop=1;jettySize=auto;html=1;exitX=1;exitY=0.5;exitDx=0;exitDy=0;entryX=0.5;entryY=0;entryDx=0;entryDy=0;" edge="1" parent="1" source="oqdAlFlm3cxLVqcBOJ25-26" target="oqdAlFlm3cxLVqcBOJ25-17">
          <mxGeometry relative="1" as="geometry" />
        </mxCell>
        <mxCell id="oqdAlFlm3cxLVqcBOJ25-26" value="ataque especial&lt;br/&gt;" style="ellipse;whiteSpace=wrap;html=1;align=center;" vertex="1" parent="1">
          <mxGeometry x="-830" y="6370" width="100" height="40" as="geometry" />
        </mxCell>
        <mxCell id="oqdAlFlm3cxLVqcBOJ25-32" style="edgeStyle=orthogonalEdgeStyle;rounded=0;orthogonalLoop=1;jettySize=auto;html=1;exitX=1;exitY=0.5;exitDx=0;exitDy=0;entryX=0.5;entryY=0;entryDx=0;entryDy=0;" edge="1" parent="1" source="oqdAlFlm3cxLVqcBOJ25-27" target="oqdAlFlm3cxLVqcBOJ25-17">
          <mxGeometry relative="1" as="geometry" />
        </mxCell>
        <mxCell id="oqdAlFlm3cxLVqcBOJ25-27" value="defensa especial&lt;br/&gt;" style="ellipse;whiteSpace=wrap;html=1;align=center;" vertex="1" parent="1">
          <mxGeometry x="-830" y="6320" width="100" height="40" as="geometry" />
        </mxCell>
        <mxCell id="oqdAlFlm3cxLVqcBOJ25-34" style="edgeStyle=orthogonalEdgeStyle;rounded=0;orthogonalLoop=1;jettySize=auto;html=1;exitX=1;exitY=0.5;exitDx=0;exitDy=0;entryX=0.5;entryY=0;entryDx=0;entryDy=0;" edge="1" parent="1" source="oqdAlFlm3cxLVqcBOJ25-28" target="oqdAlFlm3cxLVqcBOJ25-17">
          <mxGeometry relative="1" as="geometry" />
        </mxCell>
        <mxCell id="oqdAlFlm3cxLVqcBOJ25-28" value="velocidad" style="ellipse;whiteSpace=wrap;html=1;align=center;" vertex="1" parent="1">
          <mxGeometry x="-830" y="6420" width="100" height="40" as="geometry" />
        </mxCell>
        <mxCell id="oqdAlFlm3cxLVqcBOJ25-36" value="(1,1)" style="text;html=1;align=center;verticalAlign=middle;resizable=0;points=[];autosize=1;strokeColor=none;fillColor=none;" vertex="1" parent="1">
          <mxGeometry x="-630" y="6560" width="50" height="30" as="geometry" />
        </mxCell>
        <mxCell id="oqdAlFlm3cxLVqcBOJ25-40" style="edgeStyle=orthogonalEdgeStyle;rounded=0;orthogonalLoop=1;jettySize=auto;html=1;exitX=0;exitY=0.5;exitDx=0;exitDy=0;entryX=1;entryY=0.5;entryDx=0;entryDy=0;" edge="1" parent="1" source="oqdAlFlm3cxLVqcBOJ25-37" target="oqdAlFlm3cxLVqcBOJ25-17">
          <mxGeometry relative="1" as="geometry" />
        </mxCell>
        <mxCell id="oqdAlFlm3cxLVqcBOJ25-37" value="tiene" style="shape=rhombus;perimeter=rhombusPerimeter;whiteSpace=wrap;html=1;align=center;" vertex="1" parent="1">
          <mxGeometry x="-485" y="6570" width="120" height="60" as="geometry" />
        </mxCell>
        <mxCell id="oqdAlFlm3cxLVqcBOJ25-41" value="(1,1)" style="text;html=1;align=center;verticalAlign=middle;resizable=0;points=[];autosize=1;strokeColor=none;fillColor=none;" vertex="1" parent="1">
          <mxGeometry x="-230" y="6560" width="50" height="30" as="geometry" />
        </mxCell>
        <mxCell id="oqdAlFlm3cxLVqcBOJ25-42" value="1:1" style="text;html=1;align=center;verticalAlign=middle;resizable=0;points=[];autosize=1;strokeColor=none;fillColor=none;" vertex="1" parent="1">
          <mxGeometry x="-445" y="6540" width="40" height="30" as="geometry" />
        </mxCell>
        <mxCell id="oqdAlFlm3cxLVqcBOJ25-43" value="(1,1)" style="text;html=1;align=center;verticalAlign=middle;resizable=0;points=[];autosize=1;strokeColor=none;fillColor=none;" vertex="1" parent="1">
          <mxGeometry x="-120" y="6890" width="50" height="30" as="geometry" />
        </mxCell>
        <mxCell id="oqdAlFlm3cxLVqcBOJ25-44" value="(1,n)" style="text;html=1;align=center;verticalAlign=middle;resizable=0;points=[];autosize=1;strokeColor=none;fillColor=none;" vertex="1" parent="1">
          <mxGeometry x="-120" y="6630" width="50" height="30" as="geometry" />
        </mxCell>
        <mxCell id="oqdAlFlm3cxLVqcBOJ25-45" value="1:N" style="text;html=1;align=center;verticalAlign=middle;resizable=0;points=[];autosize=1;strokeColor=none;fillColor=none;" vertex="1" parent="1">
          <mxGeometry x="-65" y="6745" width="40" height="30" as="geometry" />
        </mxCell>
      </root>
    </mxGraphModel>
  </diagram>
</mxfile>
